<svg width="24" height="24" viewBox="0 0 24 24" fill="none" xmlns="http://www.w3.org/2000/svg">
<path d="M19.298 9.566H4.70203C4.40664 9.56633 4.11515 9.63342 3.84934 9.76226C3.58354 9.89109 3.35029 10.0783 3.16703 10.31C2.98453 10.541 2.85701 10.8105 2.79411 11.0981C2.73122 11.3858 2.73461 11.6839 2.80403 11.97L4.36903 18.378C4.59562 19.2036 5.08758 19.9317 5.76903 20.45C6.45103 20.969 7.28603 21.25 8.14503 21.25H15.853C16.712 21.25 17.547 20.969 18.229 20.45C18.9105 19.9317 19.4024 19.2036 19.629 18.378L21.194 11.971C21.2994 11.5391 21.2531 11.084 21.0631 10.6821C20.8731 10.2802 20.5507 9.95568 20.15 9.763C19.8834 9.635 19.5918 9.56772 19.296 9.566M8.08703 13.46V17.355M12 13.46V17.355M15.913 13.46V17.355M18.848 9.566C18.8477 8.67005 18.6703 7.78299 18.326 6.95582C17.9818 6.12864 17.4774 5.37765 16.842 4.746C15.5555 3.4665 13.8145 2.7488 12 2.75C10.1856 2.7488 8.44454 3.4665 7.15803 4.746C6.52279 5.37773 6.01865 6.12876 5.67456 6.95593C5.33048 7.78311 5.15324 8.67012 5.15303 9.566" stroke="#1D1E23" stroke-width="2" stroke-linecap="round" stroke-linejoin="round"/>
</svg>
