<svg width="26" height="26" viewBox="0 0 26 26" fill="none" xmlns="http://www.w3.org/2000/svg">
<path d="M8.125 19.5C8.55598 19.5 8.9693 19.6712 9.27405 19.976C9.5788 20.2807 9.75 20.694 9.75 21.125C9.75 21.556 9.5788 21.9693 9.27405 22.274C8.9693 22.5788 8.55598 22.75 8.125 22.75C7.69402 22.75 7.2807 22.5788 6.97595 22.274C6.6712 21.9693 6.5 21.556 6.5 21.125C6.5 20.694 6.6712 20.2807 6.97595 19.976C7.2807 19.6712 7.69402 19.5 8.125 19.5ZM17.875 19.5C18.306 19.5 18.7193 19.6712 19.024 19.976C19.3288 20.2807 19.5 20.694 19.5 21.125C19.5 21.556 19.3288 21.9693 19.024 22.274C18.7193 22.5788 18.306 22.75 17.875 22.75C17.444 22.75 17.0307 22.5788 16.726 22.274C16.4212 21.9693 16.25 21.556 16.25 21.125C16.25 20.694 16.4212 20.2807 16.726 19.976C17.0307 19.6712 17.444 19.5 17.875 19.5Z" stroke="#1D1E23" stroke-width="1.5"/>
<path d="M2.43644 2.48306C2.23302 2.41152 2.00951 2.42372 1.81508 2.51697C1.62065 2.61022 1.47123 2.77689 1.39969 2.98031C1.32815 3.18374 1.34034 3.40724 1.4336 3.60167C1.52685 3.7961 1.69352 3.94552 1.89694 4.01706L2.43644 2.48306ZM22.3795 10.7066L23.1747 10.8702L23.1758 10.8659L22.3795 10.7066ZM6.18369 10.5734V7.62456H4.55869V10.5734H6.18369ZM2.71919 2.58273L2.43644 2.48306L1.89694 4.01706L2.17969 4.11565L2.71919 2.58273ZM11.8495 17.6042H17.5934V15.9792H11.8495V17.6042ZM6.18369 7.62456C6.18369 6.85865 6.18477 6.21948 6.12952 5.70056C6.06994 5.16215 5.94536 4.6714 5.63986 4.22506L4.29761 5.14156C4.39511 5.28456 4.47094 5.48173 4.51319 5.87498C4.55761 6.28665 4.55869 6.8229 4.55869 7.62456H6.18369ZM2.17969 4.11565C2.90336 4.37023 3.37894 4.53923 3.72886 4.71256C4.05711 4.8729 4.20227 5.0029 4.29761 5.14265L5.63986 4.22506C5.33219 3.7744 4.92161 3.48623 4.44386 3.25115C3.98886 3.02798 3.40602 2.82431 2.71919 2.58273L2.17969 4.11565ZM4.55869 10.5734C4.55869 12.1475 4.57386 13.2817 4.72119 14.1484C4.88044 15.0736 5.19786 15.7366 5.78827 16.3606L6.96802 15.2426C6.62136 14.8764 6.43394 14.5189 6.32344 13.8743C6.20427 13.1701 6.18369 12.1865 6.18369 10.5734H4.55869ZM11.8495 15.9792C10.3144 15.9792 9.24952 15.9771 8.44677 15.8633C7.67219 15.7539 7.26377 15.5546 6.96802 15.2426L5.78827 16.3606C6.43177 17.0398 7.24752 17.3356 8.21819 17.4721C9.16069 17.6064 10.3643 17.6042 11.8495 17.6042V15.9792ZM5.37119 7.44256H18.512V5.81756H5.37227L5.37119 7.44256ZM21.5833 10.542L21.0416 13.1691L22.6341 13.4962L23.1747 10.8702L21.5833 10.542ZM18.5142 7.44256C19.4415 7.44256 20.2584 7.44365 20.9029 7.51515C21.2214 7.5527 21.4641 7.60109 21.6309 7.66031C21.8054 7.72206 21.8335 7.76865 21.8194 7.75023L23.1075 6.76006C22.8529 6.42856 22.4954 6.24115 22.1694 6.1274C21.8168 6.01133 21.4523 5.93503 21.0828 5.8999C20.3299 5.81648 19.4112 5.81756 18.5142 5.81756V7.44256ZM23.1758 10.8659C23.3599 9.94723 23.5159 9.1759 23.5539 8.5584C23.5939 7.92356 23.5214 7.2974 23.1075 6.76006L21.8194 7.75023C21.8866 7.83798 21.9603 7.99506 21.9321 8.45873C21.9029 8.93973 21.7761 9.58215 21.5833 10.5474L23.1758 10.8659ZM17.5934 17.6042C18.4189 17.6042 19.1122 17.6053 19.6712 17.5371C20.2508 17.4666 20.7805 17.3106 21.242 16.9347L20.215 15.6748C20.0796 15.7853 19.8879 15.8741 19.4729 15.924C19.0364 15.9781 18.46 15.9792 17.5934 15.9792V17.6042ZM21.0438 13.1691C20.8683 14.0173 20.7513 14.5806 20.6104 14.9977C20.4772 15.3942 20.3504 15.5643 20.215 15.6748L21.242 16.9347C21.7046 16.5577 21.9635 16.0713 22.1499 15.5166C22.3297 14.9836 22.4684 14.3055 22.6352 13.4973L21.0438 13.1691Z" fill="#1D1E23"/>
<path d="M14.0834 14.0833V11.9167M14.0834 11.9167V9.75M14.0834 11.9167H16.25M14.0834 11.9167H11.9167" stroke="#1D1E23" stroke-width="1.5" stroke-linecap="round"/>
</svg>
