<svg width="18" height="18" viewBox="0 0 18 18" fill="none" xmlns="http://www.w3.org/2000/svg">
<g clip-path="url(#clip0_654_451)">
<path fill-rule="evenodd" clip-rule="evenodd" d="M11.0677 1.96561C11.7263 1.30701 12.6196 0.937012 13.551 0.937012C14.4824 0.937012 15.3756 1.30701 16.0342 1.96561C16.6928 2.62421 17.0628 3.51746 17.0628 4.44886C17.0628 5.38026 16.6928 6.27351 16.0342 6.93211L8.91973 14.0466C8.51323 14.4531 8.27473 14.6916 8.00773 14.8994C7.69373 15.1454 7.35623 15.3541 6.99523 15.5256C6.69073 15.6704 6.36973 15.7776 5.82523 15.9591L3.32623 16.7916L2.72473 16.9926C2.4855 17.0725 2.22876 17.0841 1.98328 17.0262C1.73781 16.9683 1.51332 16.8432 1.33498 16.6649C1.15664 16.4865 1.03151 16.262 0.973623 16.0166C0.915732 15.7711 0.927371 15.5143 1.00723 15.2751L2.04073 12.1754C2.22223 11.6301 2.32948 11.3091 2.47423 11.0039C2.64623 10.6439 2.85498 10.3064 3.10048 9.99136C3.30748 9.72586 3.54673 9.48661 3.95323 9.08011L11.0677 1.96561ZM3.29998 15.6156L5.43073 14.9046C6.02398 14.7066 6.27598 14.6219 6.51073 14.5101C6.79673 14.3731 7.06498 14.2074 7.31548 14.0129C7.52023 13.8524 7.70923 13.6656 8.15173 13.2231L13.8292 7.54561C13.0508 7.26977 12.3442 6.8228 11.7615 6.23761C11.1768 5.65473 10.7304 4.94813 10.455 4.16986L4.77748 9.84736C4.33498 10.2891 4.14748 10.4774 3.98773 10.6829C3.79273 10.9329 3.62698 11.2011 3.49048 11.4876C3.37873 11.7224 3.29398 11.9744 3.09598 12.5676L2.38498 14.6999L3.29998 15.6156ZM11.3662 3.25711C11.3925 3.38836 11.4352 3.56686 11.508 3.77461C11.7274 4.40239 12.0864 4.9722 12.558 5.44111C13.0267 5.91259 13.5962 6.2716 14.2237 6.49111C14.4322 6.56386 14.6107 6.60661 14.742 6.63286L15.2385 6.13636C15.6835 5.68827 15.9327 5.08208 15.9316 4.45059C15.9305 3.8191 15.6791 3.21379 15.2326 2.76725C14.7861 2.32072 14.1807 2.06937 13.5493 2.06827C12.9178 2.06716 12.3116 2.31639 11.8635 2.76136L11.3662 3.25711Z" fill="#616264"/>
</g>
<defs>
<clipPath id="clip0_654_451">
<rect width="18" height="18" fill="white"/>
</clipPath>
</defs>
</svg>
