<svg width="24" height="24" viewBox="0 0 24 24" fill="none" xmlns="http://www.w3.org/2000/svg">
<path fill-rule="evenodd" clip-rule="evenodd" d="M14.757 2.62097C15.6351 1.74284 16.8262 1.24951 18.068 1.24951C19.3099 1.24951 20.5009 1.74284 21.379 2.62097C22.2571 3.4991 22.7505 4.69011 22.7505 5.93197C22.7505 7.17384 22.2571 8.36484 21.379 9.24297L11.893 18.729C11.351 19.271 11.033 19.589 10.677 19.866C10.2584 20.194 9.80835 20.4723 9.32702 20.701C8.92102 20.894 8.49302 21.037 7.76702 21.279L4.43502 22.389L3.63302 22.657C3.31405 22.7635 2.97172 22.779 2.64442 22.7018C2.31712 22.6246 2.0178 22.4578 1.78001 22.22C1.54223 21.9822 1.37539 21.6829 1.2982 21.3556C1.22102 21.0283 1.23653 20.6859 1.34302 20.367L2.72102 16.234C2.96302 15.507 3.10602 15.079 3.29902 14.672C3.52835 14.192 3.80668 13.742 4.13402 13.322C4.41002 12.968 4.72902 12.649 5.27102 12.107L14.757 2.62097ZM4.40002 20.821L7.24102 19.873C8.03202 19.609 8.36802 19.496 8.68102 19.347C9.06235 19.1643 9.42002 18.9433 9.75402 18.684C10.027 18.47 10.279 18.221 10.869 17.631L18.439 10.061C17.4011 9.69319 16.459 9.09722 15.682 8.31697C14.9025 7.5398 14.3072 6.59768 13.94 5.55997L6.37002 13.13C5.78002 13.719 5.53002 13.97 5.31702 14.244C5.05702 14.5773 4.83602 14.935 4.65402 15.317C4.50502 15.63 4.39202 15.966 4.12802 16.757L3.18002 19.6L4.40002 20.821ZM15.155 4.34297C15.19 4.51797 15.247 4.75597 15.344 5.03297C15.6366 5.87002 16.1153 6.62976 16.744 7.25497C17.3689 7.88361 18.1283 8.36229 18.965 8.65497C19.243 8.75197 19.481 8.80897 19.656 8.84397L20.318 8.18197C20.9113 7.58452 21.2436 6.77627 21.2421 5.93428C21.2407 5.09229 20.9055 4.28521 20.3102 3.68983C19.7148 3.09446 18.9077 2.75932 18.0657 2.75785C17.2237 2.75638 16.4155 3.08868 15.818 3.68197L15.155 4.34297Z" fill="#1D1E23"/>
</svg>
