<svg width="228" height="39" viewBox="0 0 228 39" fill="none" xmlns="http://www.w3.org/2000/svg">
<path d="M221.578 26.7067V5.05742C221.578 3.98933 219.999 2.46936 220.437 1.9764C220.903 1.48343 224.235 0.944845 225.002 0.944824C225.572 0.944809 226.863 1.74362 227.302 2.26396C227.767 2.75693 228 4.01672 228 5.05742V34.0189C228 34.731 227.89 35.3472 227.671 35.8675C227.452 36.4153 227.165 36.8671 226.809 37.2232C226.453 37.6066 226.028 37.8805 225.535 38.0448C225.07 38.2365 224.577 38.3323 224.056 38.3323C223.016 38.3323 222.167 38.0995 221.509 37.634C220.879 37.1684 220.25 36.4563 219.62 35.4978L206.744 13.6021V35.2513C206.744 36.3194 208.456 34.7606 207.885 36.3194C207.631 37.0141 203.79 38.3323 203.023 38.3323C202.256 38.3323 201.64 38.0722 201.175 37.5518C200.736 37.0588 200.517 36.292 200.517 35.2513V6.28982C200.517 5.57776 200.627 4.96156 200.846 4.44121C201.065 3.89348 201.353 3.4416 201.709 3.08557C202.065 2.70215 202.476 2.42829 202.941 2.26396C203.434 2.07226 203.941 1.9764 204.461 1.9764C205.502 1.9764 206.337 2.22289 206.967 2.71585C207.597 3.18142 208.24 3.87978 208.898 4.81094L221.578 26.7067Z" fill="#1D1E23"/>
<path d="M163.55 19.513C163.55 17.2947 163.769 15.2818 164.207 13.4742C164.646 11.6667 165.234 10.0646 165.974 8.66787C166.741 7.24376 167.617 6.02505 168.603 5.01174C169.589 3.97104 170.63 3.12205 171.725 2.46477C172.848 1.7801 173.984 1.28714 175.135 0.985883C176.285 0.657241 177.394 0.49292 178.462 0.49292C179.695 0.49292 180.571 0.725708 181.091 1.19128C181.639 1.65686 181.913 2.24567 181.913 2.95773C181.913 3.58762 181.694 4.12167 181.256 4.55986C180.817 4.99804 180.119 5.38146 179.161 5.7101C177.928 6.1209 176.819 6.69602 175.833 7.43547C174.875 8.17491 174.067 9.10606 173.409 10.2289C172.752 11.3518 172.245 12.6937 171.889 14.2548C171.533 15.8158 171.355 17.637 171.355 19.7184C171.355 21.9094 171.547 23.7991 171.93 25.3875C172.341 26.9485 172.903 28.2494 173.615 29.2901C174.327 30.3034 175.19 31.0429 176.203 31.5084C177.216 32.0014 178.339 32.2479 179.571 32.2479C180.804 32.2479 181.927 32.0014 182.94 31.5084C183.953 31.0429 184.816 30.3034 185.528 29.2901C186.24 28.2494 186.788 26.9485 187.171 25.3875C187.582 23.7991 187.787 21.9094 187.787 19.7184C187.787 17.6918 187.664 15.9528 187.418 14.5013C187.199 13.0498 186.884 11.8584 186.473 10.9273C186.062 9.99613 185.596 9.31146 185.076 8.87327C184.556 8.43508 184.008 8.21599 183.433 8.21599C182.995 8.21599 182.57 8.33923 182.159 8.58571C181.776 8.80481 181.793 8.71297 181.379 9.12685C181.379 8.5563 181.215 8.46247 181.379 7.80519C181.543 7.14791 181.817 6.5454 182.201 5.99766C182.584 5.42254 183.091 4.95696 183.72 4.60094C184.378 4.24491 185.145 4.06689 186.021 4.06689C187.253 4.06689 188.445 4.38184 189.595 5.01174C190.745 5.61425 191.759 6.55909 192.635 7.84627C193.539 9.10606 194.251 10.7082 194.771 12.6526C195.319 14.5971 195.593 16.8839 195.593 19.513C195.593 22.6077 195.182 25.2779 194.36 27.5237C193.539 29.742 192.402 31.5769 190.951 33.0284C189.526 34.4799 187.828 35.548 185.857 36.2327C183.912 36.9173 181.817 37.2597 179.571 37.2597C177.298 37.2597 175.19 36.9173 173.245 36.2327C171.301 35.548 169.603 34.4799 168.151 33.0284C166.727 31.5769 165.604 29.742 164.783 27.5237C163.961 25.2779 163.55 22.6077 163.55 19.513Z" fill="#1D1E23"/>
<path d="M140.563 11.0506C140.563 9.90032 140.905 8.96917 141.59 8.25711C142.275 7.51767 143.233 7.14795 144.466 7.14795C145.698 7.14795 146.656 7.51767 147.341 8.25711C148.026 8.96917 148.368 9.90032 148.368 11.0506C148.368 12.2008 148.026 13.1457 147.341 13.8851C146.656 14.5971 145.698 14.9532 144.466 14.9532C143.233 14.9532 142.275 14.5971 141.59 13.8851C140.905 13.1457 140.563 12.2008 140.563 11.0506ZM140.563 26.2502C140.563 25.1 140.905 24.1688 141.59 23.4568C142.275 22.7173 143.233 22.3476 144.466 22.3476C145.698 22.3476 146.656 22.7721 147.341 23.6211C148.026 24.4427 148.368 25.5929 148.368 27.0718C148.368 29.0711 147.903 30.6869 146.971 31.9193C146.04 33.1791 144.78 33.809 143.192 33.809C142.206 33.809 141.467 33.5899 140.974 33.1517C140.508 32.7409 140.275 32.2753 140.275 31.755C140.275 31.0703 140.322 30.4267 140.842 30.1528C140.842 30.3719 141.138 30.6869 141.302 30.769C141.494 30.8786 141.686 30.9197 141.877 30.8923C142.097 30.8649 142.288 30.7553 142.453 30.5636C142.644 30.3993 142.74 30.1528 142.74 29.8242C142.165 29.6051 141.658 29.208 141.22 28.6329C140.782 28.0304 140.563 27.2361 140.563 26.2502Z" fill="#1D1E23"/>
<path d="M117.579 19.1023C117.579 16.6923 117.401 14.4876 117.045 12.4884C116.716 10.4618 116.223 8.72273 115.566 7.27123C114.909 5.81974 114.087 4.68319 113.101 3.86158C112.143 3.03998 111.034 2.62918 109.774 2.62918C109.774 1.9719 110.075 1.39678 110.677 0.903814C111.307 0.383465 112.266 0.123291 113.553 0.123291C115.196 0.123291 116.73 0.520399 118.154 1.31461C119.606 2.08144 120.865 3.24538 121.933 4.80643C123.002 6.36747 123.837 8.33932 124.439 10.722C125.069 13.1046 125.384 15.8981 125.384 19.1023C125.384 22.3066 125.069 25.1 124.439 27.4827C123.837 29.8653 123.002 31.8372 121.933 33.3982C120.865 34.9593 119.606 36.1232 118.154 36.89C116.73 37.6842 115.196 38.0814 113.553 38.0814C112.266 38.0814 111.307 37.8212 110.677 37.3008C110.075 36.8079 109.774 36.2327 109.774 35.5755C111.034 35.5755 112.143 35.1647 113.101 34.3431C114.087 33.5488 114.909 32.4123 115.566 30.9334C116.223 29.4819 116.716 27.7565 117.045 25.7573C117.401 23.7307 117.579 21.5124 117.579 19.1023Z" fill="#1D1E23"/>
<path d="M79.6802 22.024C79.6802 21.4717 80.1279 21.024 80.6802 21.024H101.973C102.525 21.024 102.973 21.4717 102.973 22.024V34.6485C102.973 35.2008 102.525 35.6485 101.973 35.6485H99.3306C98.7783 35.6485 98.3306 35.2008 98.3306 34.6485V26.132C98.3306 25.5797 97.8829 25.132 97.3306 25.132H96.989C96.4367 25.132 95.989 25.5797 95.989 26.132V34.6485C95.989 35.2008 95.5413 35.6485 94.989 35.6485H93.3329C92.7806 35.6485 92.3329 35.2008 92.3329 34.6485V26.132C92.3329 25.5797 91.8852 25.132 91.3329 25.132H91.0324C90.4801 25.132 90.0324 25.5797 90.0324 26.132V34.6485C90.0324 35.2008 89.5847 35.6485 89.0324 35.6485H87.3763C86.824 35.6485 86.3763 35.2008 86.3763 34.6485V26.132C86.3763 25.5797 85.9286 25.132 85.3763 25.132H85.0758C84.5235 25.132 84.0758 25.5797 84.0758 26.132V34.6485C84.0758 35.2008 83.6281 35.6485 83.0758 35.6485H80.6802C80.1279 35.6485 79.6802 35.2008 79.6802 34.6485V22.024ZM76.3116 34.4712C76.3116 33.919 76.7593 33.4712 77.3116 33.4712H104.52C105.072 33.4712 105.52 33.919 105.52 34.4712V36.7436C105.52 37.2959 105.072 37.7436 104.52 37.7436H77.3116C76.7593 37.7436 76.3116 37.2959 76.3116 36.7436V34.4712ZM70.0638 4.70899C69.4735 4.42156 69.2604 3.66494 69.6524 3.1383L71.1776 1.08951C71.4445 0.731101 71.9175 0.591178 72.3292 0.76496C72.9168 1.01307 73.5323 1.30279 74.1755 1.63413C75.1066 2.07232 75.9693 2.53789 76.7635 3.03085C77.2585 3.32785 77.6988 3.61988 78.0845 3.90693C78.4921 4.21032 78.555 4.78182 78.2617 5.19669L76.5857 7.56704C76.2278 8.07318 75.4975 8.13631 75.0089 7.75487C74.6972 7.5116 74.351 7.26519 73.9701 7.01563C73.2032 6.49528 72.3679 5.97493 71.4642 5.45458C70.9859 5.17921 70.5191 4.93068 70.0638 4.70899ZM67.8654 15.7865C67.2912 15.5114 67.089 14.784 67.4591 14.2659L68.9674 12.1543C69.229 11.7881 69.7034 11.6404 70.1222 11.8052C70.7265 12.0429 71.3519 12.3087 71.9982 12.6025C72.902 13.0133 73.751 13.4652 74.5452 13.9582C75.0273 14.2313 75.4575 14.4998 75.8358 14.7635C76.2585 15.0582 76.3348 15.6375 76.0422 16.0615L74.4052 18.434C74.0505 18.9481 73.3117 19.0175 72.8107 18.6445C72.5187 18.4272 72.1931 18.207 71.8339 17.984C71.0397 17.4637 70.1907 16.9707 69.2869 16.5051C68.8048 16.249 68.331 16.0095 67.8654 15.7865ZM68.2342 36.0485C67.7885 35.7555 67.6516 35.1645 67.9172 34.702C68.4171 33.8313 68.9558 32.8596 69.5334 31.787C70.3002 30.3355 71.0808 28.8018 71.875 27.186C72.4753 25.9439 73.0444 24.7096 73.5821 23.4831C73.8447 22.8844 74.5993 22.685 75.1184 23.0826L77.3488 24.791C77.7067 25.0651 77.8372 25.5449 77.6649 25.9614C77.147 27.2129 76.6001 28.4838 76.0241 29.774C75.3668 31.2803 74.6821 32.7729 73.9701 34.2518C73.4493 35.3558 72.9207 36.4281 72.3841 37.4687C72.114 37.9924 71.4495 38.1622 70.9571 37.8386L68.2342 36.0485ZM86.5547 5.78323C86.0024 5.78323 85.5547 6.23094 85.5547 6.78323V14.2317C85.5547 14.7839 86.0024 15.2317 86.5547 15.2317H95.7285C96.2808 15.2317 96.7285 14.7839 96.7285 14.2317V6.78323C96.7285 6.23094 96.2808 5.78323 95.7285 5.78323H86.5547ZM81.118 3.08601C81.118 2.53373 81.5657 2.08601 82.118 2.08601H100.412C100.964 2.08601 101.412 2.53373 101.412 3.08601V17.8878C101.412 18.4401 100.964 18.8878 100.412 18.8878H82.118C81.5657 18.8878 81.118 18.4401 81.118 17.8878V3.08601ZM89.6407 6.98034C89.7703 6.45605 90.2533 6.07827 90.7899 6.1394L91.9984 6.27707C92.5775 6.34305 92.9808 6.88964 92.8272 7.45194C92.4676 8.76836 91.9194 10.0333 91.1827 11.2469C90.417 12.508 89.4475 13.547 88.2744 14.3637C87.8431 14.664 87.2575 14.5225 86.9137 14.125C86.7996 13.9931 86.6753 13.8553 86.5406 13.7117C86.0926 13.1677 86.1872 12.2558 86.7366 11.8145C87.4343 11.2541 88.0125 10.5856 88.4714 9.80908C89.01 8.89751 89.3998 7.9546 89.6407 6.98034ZM90.3284 10.9818C89.8625 10.5583 89.8744 9.8139 90.367 9.42171L91.0102 8.90954C91.3754 8.61872 91.8938 8.61862 92.2539 8.91572C92.6117 9.2109 92.9804 9.52238 93.3599 9.85016C93.9624 10.3705 94.5375 10.8772 95.0853 11.3701C95.3486 11.5958 95.5889 11.8129 95.8063 12.0213C96.1982 12.3972 96.1612 13.0174 95.7594 13.3827L94.9803 14.091C94.5648 14.4687 93.9195 14.4301 93.5259 14.0296C93.3243 13.8244 93.1046 13.6089 92.8669 13.3831C92.3466 12.8353 91.7715 12.2876 91.1416 11.7398C90.8647 11.4756 90.5937 11.2229 90.3284 10.9818Z" fill="#1D1E23"/>
<path d="M53.8607 19.1023C53.8607 21.5124 54.025 23.7307 54.3536 25.7573C54.6823 27.7565 55.1752 29.4819 55.8325 30.9334C56.4898 32.4123 57.2977 33.5488 58.2563 34.3431C59.2422 35.1647 60.3787 35.5755 61.6659 35.5755C61.6659 36.2327 61.351 36.8079 60.7211 37.3008C60.1186 37.8212 59.1737 38.0814 57.8865 38.0814C56.2433 38.0814 54.696 37.6842 53.2445 36.89C51.8204 36.1232 50.5743 34.9593 49.5062 33.3982C48.4381 31.8372 47.5891 29.8653 46.9592 27.4827C46.3567 25.1 46.0555 22.3066 46.0555 19.1023C46.0555 15.8981 46.3567 13.1046 46.9592 10.722C47.5891 8.33932 48.4381 6.36747 49.5062 4.80643C50.5743 3.24538 51.8204 2.08144 53.2445 1.31461C54.696 0.520399 56.2433 0.123291 57.8865 0.123291C59.1737 0.123291 60.1186 0.383465 60.7211 0.903814C61.351 1.39678 61.6659 1.9719 61.6659 2.62918C60.3787 2.62918 59.2422 3.03998 58.2563 3.86158C57.2977 4.68319 56.4898 5.81974 55.8325 7.27123C55.1752 8.72273 54.6823 10.4618 54.3536 12.4884C54.025 14.4876 53.8607 16.6923 53.8607 19.1023Z" fill="#1D1E23"/>
<path d="M3.08101 24.0319C2.01293 24.0319 1.2324 23.8128 0.739443 23.3746C0.246481 22.909 0 22.2928 0 21.526C0 20.7592 0.246481 20.1567 0.739443 19.7185C1.25979 19.2529 2.04031 19.0201 3.08101 19.0201H14.9532V16.6375C12.5979 16.4731 10.6261 16.1445 9.03763 15.6515C7.47659 15.1586 6.2168 14.5424 5.25826 13.8029C4.32711 13.0635 3.65613 12.2282 3.24533 11.297C2.86192 10.3385 2.67021 9.29781 2.67021 8.17495C2.67021 6.96993 2.91669 5.87446 3.40965 4.88854C3.93 3.87523 4.7516 3.01255 5.87446 2.30049C6.99732 1.56105 8.4762 0.999616 10.3111 0.616202C12.146 0.205401 14.3917 0 17.0483 0C18.1985 0 19.0475 0.219094 19.5952 0.657281C20.143 1.09547 20.4168 1.71167 20.4168 2.50589C20.4168 3.3001 20.143 3.91631 19.5952 4.3545C19.0475 4.79268 18.1985 5.01178 17.0483 5.01178C15.7885 5.01178 14.7341 5.09394 13.8851 5.25826C13.0635 5.42258 12.3925 5.65537 11.8722 5.95662C11.3792 6.23049 11.0232 6.58652 10.8041 7.02471C10.585 7.43551 10.4754 7.88739 10.4754 8.38035C10.4754 8.87331 10.585 9.33889 10.8041 9.77708C11.0232 10.1879 11.434 10.5439 12.0365 10.8452C12.6664 11.119 13.5291 11.3381 14.6245 11.5024C15.72 11.6668 17.1441 11.7489 18.8969 11.7489C20.677 11.7489 22.1148 11.6805 23.2103 11.5435C24.3331 11.3792 25.1958 11.1601 25.7983 10.8862C26.4008 10.6124 26.798 10.2974 26.9897 9.9414C27.2088 9.55798 27.3183 9.14718 27.3183 8.70899C27.3183 7.94216 27.0855 7.31227 26.6199 6.8193C26.1817 6.32634 25.5655 6.07986 24.7713 6.07986C23.1555 6.07986 22.2431 5.95662 21.1791 7.33052C20.8778 6.97449 20.499 6.05248 20.499 5.34042C20.499 4.82007 20.6359 4.31342 20.9098 3.82045C21.211 3.32749 21.6219 2.8893 22.1422 2.50589C22.6899 2.09509 23.3472 1.78014 24.114 1.56105C24.8809 1.31456 25.7436 1.19132 26.7021 1.19132C27.9893 1.19132 29.1532 1.36934 30.1939 1.72537C31.2346 2.05401 32.111 2.53328 32.823 3.16317C33.5625 3.76568 34.1239 4.49143 34.5073 5.34042C34.9181 6.18941 35.1235 7.13425 35.1235 8.17495C35.1235 9.27042 34.9181 10.2974 34.5073 11.256C34.1239 12.2145 33.4529 13.0635 32.4944 13.8029C31.5359 14.5424 30.2624 15.1586 28.6739 15.6515C27.0855 16.1445 25.1137 16.4731 22.7584 16.6375V19.0201H34.7127C35.7808 19.0201 36.5613 19.2529 37.0543 19.7185C37.5473 20.1567 37.7937 20.7592 37.7937 21.526C37.7937 22.2928 37.5336 22.909 37.0132 23.3746C36.5203 23.8128 35.7534 24.0319 34.7127 24.0319H3.08101ZM10.4754 30.0707C10.4754 30.7006 10.5987 31.2072 10.8452 31.5906C11.0916 32.0014 11.5435 32.3164 12.2008 32.5355C12.8855 32.7546 13.8029 32.9052 14.9532 32.9874C16.1308 33.0695 17.6371 33.1106 19.472 33.1106C22.0737 33.1106 24.1688 33.0011 25.7573 32.782C27.3731 32.5903 28.6192 32.289 29.4955 31.8782C30.3993 31.4674 31.0018 30.9607 31.3031 30.3582C31.6043 29.7831 31.4491 29.5823 32.0197 29.0117C33.1608 28.4412 33.7816 28.6055 34.4662 29.208C35.1509 29.8105 35.4932 30.5636 35.4932 31.4674C35.4932 32.4259 35.1646 33.3023 34.5073 34.0965C33.8774 34.9181 32.823 35.6302 31.3442 36.2327C29.8653 36.8352 27.9071 37.3008 25.4697 37.6294C23.0597 37.9581 20.0745 38.1224 16.5142 38.1224C14.159 38.1224 12.1049 37.9854 10.3522 37.7116C8.62683 37.4651 7.18903 37.0406 6.03878 36.4381C4.91592 35.863 4.06693 35.0825 3.49181 34.0965C2.94408 33.138 2.67021 31.933 2.67021 30.4815V29.4134C2.67021 27.9345 3.01254 26.8527 3.69721 26.1681C4.38188 25.456 5.34042 25.1 6.57282 25.1C7.80523 25.1 8.76377 25.456 9.44843 26.1681C10.1331 26.8527 10.4754 27.9345 10.4754 29.4134V30.0707Z" fill="#1D1E23"/>
</svg>
