<svg width="157" height="26" viewBox="0 0 157 26" fill="none" xmlns="http://www.w3.org/2000/svg">
<path d="M152.56 18.2262V3.74998C152.56 3.03578 151.469 2.01941 151.772 1.68978C152.093 1.36015 154.397 1.00001 154.927 1C155.322 0.99999 156.214 1.53413 156.517 1.88207C156.839 2.2117 157 3.05409 157 3.74998V23.1157C157 23.5919 156.924 24.0039 156.773 24.3519C156.621 24.7181 156.423 25.0203 156.176 25.2583C155.93 25.5147 155.637 25.6978 155.296 25.8077C154.974 25.9359 154.633 26 154.274 26C153.554 26 152.967 25.8443 152.513 25.533C152.077 25.2217 151.642 24.7456 151.206 24.1046L142.305 9.46356V23.9398C142.305 24.654 143.488 23.6117 143.094 24.654C142.918 25.1185 140.263 26 139.732 26C139.202 26 138.776 25.826 138.454 25.4781C138.151 25.1485 138 24.6357 138 23.9398V4.57405C138 4.09792 138.076 3.68588 138.227 3.33794C138.379 2.97168 138.577 2.66952 138.824 2.43146C139.07 2.17508 139.354 1.99195 139.676 1.88207C140.016 1.75388 140.367 1.68979 140.726 1.68979C141.446 1.68979 142.023 1.8546 142.459 2.18423C142.894 2.49555 143.339 2.96253 143.794 3.58516L152.56 18.2262Z" fill="#1D1E23"/>
<path d="M113 13.4503C113 11.8816 113.15 10.4581 113.451 9.17989C113.752 7.90168 114.156 6.76872 114.664 5.78101C115.191 4.77393 115.792 3.9121 116.469 3.19553C117.146 2.45959 117.861 1.85922 118.613 1.39441C119.384 0.910242 120.164 0.561639 120.954 0.348604C121.744 0.116201 122.505 0 123.238 0C124.085 0 124.686 0.164618 125.044 0.493855C125.42 0.823092 125.608 1.23948 125.608 1.74302C125.608 2.18845 125.457 2.56611 125.156 2.87598C124.856 3.18585 124.376 3.45698 123.718 3.68939C122.872 3.97989 122.11 4.38659 121.433 4.9095C120.775 5.4324 120.221 6.09088 119.769 6.88492C119.318 7.67896 118.97 8.62793 118.726 9.73184C118.481 10.8358 118.359 12.1237 118.359 13.5955C118.359 15.1449 118.491 16.4812 118.754 17.6045C119.036 18.7084 119.421 19.6283 119.91 20.3642C120.399 21.0808 120.991 21.6037 121.687 21.933C122.383 22.2816 123.154 22.4559 124 22.4559C124.846 22.4559 125.617 22.2816 126.313 21.933C127.009 21.6037 127.601 21.0808 128.09 20.3642C128.579 19.6283 128.955 18.7084 129.218 17.6045C129.5 16.4812 129.641 15.1449 129.641 13.5955C129.641 12.1624 129.556 10.9326 129.387 9.90615C129.237 8.8797 129.021 8.03725 128.738 7.37877C128.456 6.7203 128.137 6.23613 127.779 5.92626C127.422 5.61639 127.046 5.46145 126.651 5.46145C126.35 5.46145 126.059 5.5486 125.777 5.72291C125.514 5.87784 125.525 5.8129 125.241 6.10558C125.241 5.7021 125.128 5.63575 125.241 5.17095C125.354 4.70615 125.542 4.28008 125.805 3.89274C126.068 3.48603 126.416 3.1568 126.849 2.90503C127.3 2.65326 127.826 2.52737 128.428 2.52737C129.274 2.52737 130.092 2.75009 130.882 3.19553C131.672 3.6216 132.368 4.28976 132.969 5.2C133.59 6.09088 134.079 7.22384 134.436 8.59888C134.812 9.97393 135 11.5911 135 13.4503C135 15.6387 134.718 17.527 134.154 19.1151C133.59 20.6838 132.809 21.9814 131.813 23.0078C130.835 24.0343 129.669 24.7896 128.315 25.2737C126.98 25.7579 125.542 26 124 26C122.439 26 120.991 25.7579 119.656 25.2737C118.321 24.7896 117.156 24.0343 116.159 23.0078C115.181 21.9814 114.41 20.6838 113.846 19.1151C113.282 17.527 113 15.6387 113 13.4503Z" fill="#1D1E23"/>
<path d="M96.2132 7.7812C96.2132 6.96148 96.467 6.29789 96.9746 5.79045C97.4822 5.26348 98.1929 5 99.1066 5C100.02 5 100.731 5.26348 101.239 5.79045C101.746 6.29789 102 6.96148 102 7.7812C102 8.60092 101.746 9.27427 101.239 9.80123C100.731 10.3087 100.02 10.5624 99.1066 10.5624C98.1929 10.5624 97.4822 10.3087 96.9746 9.80123C96.467 9.27427 96.2132 8.60092 96.2132 7.7812ZM96.2132 18.6133C96.2132 17.7935 96.467 17.1299 96.9746 16.6225C97.4822 16.0955 98.1929 15.8321 99.1066 15.8321C100.02 15.8321 100.731 16.1346 101.239 16.7396C101.746 17.3251 102 18.1448 102 19.1988C102 20.6235 101.655 21.775 100.964 22.6533C100.274 23.5511 99.3401 24 98.1624 24C97.4315 24 96.8832 23.8439 96.5178 23.5316C96.1726 23.2388 96 22.907 96 22.5362C96 22.0483 96.0346 21.5896 96.4204 21.3945C96.4204 21.5506 96.6396 21.775 96.7614 21.8336C96.9036 21.9117 97.0457 21.9409 97.1878 21.9214C97.3503 21.9019 97.4924 21.8238 97.6142 21.6872C97.7563 21.5701 97.8274 21.3945 97.8274 21.1602C97.401 21.0041 97.0254 20.7211 96.7005 20.3112C96.3756 19.8819 96.2132 19.3159 96.2132 18.6133Z" fill="#1D1E23"/>
<path d="M81.5 13C81.5 11.3492 81.3746 9.8391 81.1237 8.4697C80.8921 7.08153 80.5447 5.89033 80.0816 4.8961C79.6184 3.90187 79.0395 3.12338 78.3447 2.5606C77.6693 1.99783 76.8877 1.71645 76 1.71645C76 1.26623 76.2123 0.872294 76.6368 0.534632C77.0807 0.178211 77.7561 0 78.6632 0C79.821 0 80.9018 0.272006 81.9053 0.816017C82.9281 1.34127 83.8158 2.13853 84.5684 3.20779C85.3211 4.27706 85.9096 5.6277 86.3342 7.25974C86.7781 8.89177 87 10.8052 87 13C87 15.1948 86.7781 17.1082 86.3342 18.7403C85.9096 20.3723 85.3211 21.7229 84.5684 22.7922C83.8158 23.8615 82.9281 24.6587 81.9053 25.184C80.9018 25.728 79.821 26 78.6632 26C77.7561 26 77.0807 25.8218 76.6368 25.4654C76.2123 25.1277 76 24.7338 76 24.2835C76.8877 24.2835 77.6693 24.0022 78.3447 23.4394C79.0395 22.8954 79.6184 22.1169 80.0816 21.1039C80.5447 20.1097 80.8921 18.9278 81.1237 17.5584C81.3746 16.1703 81.5 14.6508 81.5 13Z" fill="#1D1E23"/>
<path d="M55.6758 15.0693C55.6758 14.517 56.1236 14.0693 56.6758 14.0693H70.2924C70.8447 14.0693 71.2924 14.517 71.2924 15.0693V23.0866C71.2924 23.6389 70.8447 24.0866 70.2924 24.0866H69.1801C68.6278 24.0866 68.1801 23.6389 68.1801 23.0866V17.6681C68.1801 17.2346 67.8286 16.8831 67.3951 16.8831C66.9616 16.8831 66.6102 17.2346 66.6102 17.6681V23.0866C66.6102 23.6389 66.1625 24.0866 65.6102 24.0866H65.1589C64.6066 24.0866 64.1589 23.6389 64.1589 23.0866V17.6543C64.1589 17.2284 63.8136 16.8831 63.3877 16.8831C62.9618 16.8831 62.6165 17.2284 62.6165 17.6543V23.0866C62.6165 23.6389 62.1688 24.0866 61.6165 24.0866H61.1653C60.613 24.0866 60.1653 23.6389 60.1653 23.0866V17.6543C60.1653 17.2284 59.82 16.8831 59.3941 16.8831C58.9682 16.8831 58.6229 17.2284 58.6229 17.6543V23.0866C58.6229 23.6389 58.1752 24.0866 57.6229 24.0866H56.6758C56.1236 24.0866 55.6758 23.6389 55.6758 23.0866V15.0693ZM53.4174 23.5952C53.4174 23.043 53.8651 22.5952 54.4174 22.5952H72C72.5523 22.5952 73 23.043 73 23.5952V24.5216C73 25.0739 72.5523 25.5216 72 25.5216H54.4174C53.8651 25.5216 53.4174 25.0739 53.4174 24.5216V23.5952ZM49.5856 3.07819C49.0128 2.77255 48.8016 2.02549 49.184 1.50077L49.8248 0.621301C50.0918 0.254969 50.573 0.111369 50.9861 0.297969C51.3072 0.443034 51.6402 0.606338 51.9852 0.787879C52.6095 1.08802 53.1879 1.40693 53.7203 1.74459C53.9625 1.89304 54.1852 2.03967 54.3883 2.1845C54.7956 2.47487 54.8576 3.03615 54.573 3.44746L53.8314 4.51895C53.4738 5.0356 52.7267 5.1027 52.2187 4.73288C52.1009 4.64715 51.9772 4.56087 51.8475 4.47403C51.3333 4.1176 50.7733 3.76118 50.1674 3.40476C49.9705 3.28897 49.7766 3.18012 49.5856 3.07819ZM48.0965 10.6525C47.5356 10.3669 47.3354 9.65009 47.6961 9.13426L48.346 8.20471C48.6075 7.83071 49.0898 7.6793 49.5113 7.85425C49.8403 7.99081 50.1783 8.13968 50.5254 8.30087C51.1314 8.58225 51.7006 8.89178 52.2331 9.22944C52.4634 9.3628 52.6761 9.49452 52.8711 9.6246C53.2932 9.90611 53.3685 10.475 53.0846 10.8954L52.3682 11.9562C52.0139 12.4807 51.2566 12.5556 50.7347 12.1975C50.633 12.1277 50.5265 12.0576 50.4153 11.987C49.8828 11.6306 49.3136 11.2929 48.7076 10.974C48.5017 10.8622 48.2979 10.7551 48.0965 10.6525ZM48.2438 24.5231C47.8072 24.2298 47.6728 23.6488 47.9285 23.1892C48.2239 22.6582 48.5387 22.0756 48.8729 21.4416C49.387 20.4473 49.9103 19.3968 50.4428 18.29C50.7818 17.5736 51.1058 16.8609 51.415 16.152C51.6794 15.5459 52.4453 15.3447 52.9661 15.7523L53.9289 16.5057C54.2787 16.7794 54.4065 17.2512 54.2388 17.6625C53.9171 18.4514 53.5791 19.2515 53.2246 20.0628C52.7839 21.0945 52.3249 22.1169 51.8475 23.1299C51.5521 23.7696 51.253 24.3937 50.95 25.0023C50.6841 25.5365 50.009 25.7087 49.5137 25.376L48.2438 24.5231ZM60.6144 3.62987C60.0621 3.62987 59.6144 4.07759 59.6144 4.62987V9.10173C59.6144 9.65402 60.0621 10.1017 60.6144 10.1017H66.1059C66.6582 10.1017 67.1059 9.65402 67.1059 9.10173V4.62987C67.1059 4.07759 66.6582 3.62987 66.1059 3.62987H60.6144ZM56.6398 2.0974C56.6398 1.54512 57.0875 1.0974 57.6398 1.0974H69.2458C69.798 1.0974 70.2458 1.54512 70.2458 2.0974V11.6061C70.2458 12.1583 69.798 12.6061 69.2458 12.6061H57.6398C57.0875 12.6061 56.6398 12.1583 56.6398 11.6061V2.0974ZM62.2739 4.75051C62.4249 4.22977 62.9081 3.84867 63.4467 3.91135L63.5878 3.92778C64.1643 3.99487 64.5671 4.53913 64.3985 5.09446C64.1596 5.88106 63.8227 6.64034 63.3877 7.37229C62.9315 8.13993 62.3675 8.78737 61.6956 9.31461C61.2763 9.64362 60.6745 9.50005 60.3163 9.10539C60.3028 9.09055 60.2892 9.07563 60.2754 9.06061C59.9727 8.68511 60.0376 8.06461 60.4102 7.75832C60.8765 7.37501 61.263 6.91805 61.5699 6.38745C61.8766 5.85728 62.1112 5.31163 62.2739 4.75051ZM63.0446 7.40629C62.6138 6.99751 62.6252 6.29757 63.0858 5.9228C63.4379 5.63634 63.9436 5.63611 64.289 5.93074C64.4711 6.08612 64.6572 6.24773 64.8475 6.41558C65.2514 6.77201 65.637 7.11905 66.0042 7.45671C66.0988 7.53955 66.189 7.6207 66.2748 7.70015C66.6671 8.06362 66.6321 8.67192 66.2402 9.03587L66.1923 9.08036C65.7747 9.46822 65.116 9.43011 64.7124 9.0277C64.6494 8.96489 64.5843 8.90083 64.517 8.8355C64.1681 8.46032 63.7825 8.08514 63.3602 7.70996C63.2537 7.60613 63.1485 7.50491 63.0446 7.40629Z" fill="#1D1E23"/>
<path d="M37.5 13C37.5 14.6508 37.6158 16.1703 37.8474 17.5584C38.0789 18.9278 38.4263 20.1097 38.8895 21.1039C39.3526 22.1169 39.9219 22.8954 40.5974 23.4394C41.2921 24.0022 42.093 24.2835 43 24.2835C43 24.7338 42.7781 25.1277 42.3342 25.4654C41.9096 25.8218 41.2439 26 40.3368 26C39.1789 26 38.0886 25.728 37.0658 25.184C36.0623 24.6587 35.1842 23.8615 34.4316 22.7922C33.6789 21.7229 33.0807 20.3723 32.6368 18.7403C32.2123 17.1082 32 15.1948 32 13C32 10.8052 32.2123 8.89177 32.6368 7.25974C33.0807 5.6277 33.6789 4.27706 34.4316 3.20779C35.1842 2.13853 36.0623 1.34127 37.0658 0.816017C38.0886 0.272006 39.1789 0 40.3368 0C41.2439 0 41.9096 0.178211 42.3342 0.534632C42.7781 0.872294 43 1.26623 43 1.71645C42.093 1.71645 41.2921 1.99783 40.5974 2.5606C39.9219 3.12338 39.3526 3.90187 38.8895 4.8961C38.4263 5.89033 38.0789 7.08153 37.8474 8.4697C37.6158 9.8391 37.5 11.3492 37.5 13Z" fill="#1D1E23"/>
<path d="M2.11957 16.3901C1.38478 16.3901 0.847826 16.2407 0.508696 15.9418C0.169565 15.6243 0 15.204 0 14.681C0 14.158 0.169565 13.7471 0.508696 13.4483C0.866667 13.1307 1.40362 12.972 2.11957 12.972H10.287V11.347C8.66667 11.2349 7.31014 11.0108 6.21739 10.6746C5.14348 10.3384 4.27681 9.9181 3.61739 9.41379C2.97681 8.90948 2.51522 8.3398 2.23261 7.70474C1.96884 7.051 1.83696 6.34124 1.83696 5.57543C1.83696 4.75359 2.00652 4.00646 2.34565 3.33405C2.70362 2.64296 3.26884 2.0546 4.0413 1.56897C4.81377 1.06465 5.83116 0.681752 7.09348 0.420258C8.3558 0.140086 9.90072 0 11.7283 0C12.5196 0 13.1036 0.149425 13.4804 0.448275C13.8572 0.747126 14.0457 1.16738 14.0457 1.70905C14.0457 2.25072 13.8572 2.67098 13.4804 2.96983C13.1036 3.26868 12.5196 3.4181 11.7283 3.4181C10.8616 3.4181 10.1362 3.47414 9.55217 3.58621C8.98696 3.69828 8.52536 3.85704 8.16739 4.0625C7.82826 4.24928 7.58333 4.4921 7.43261 4.79095C7.28188 5.07112 7.20652 5.37931 7.20652 5.71552C7.20652 6.05172 7.28188 6.36925 7.43261 6.6681C7.58333 6.94828 7.86594 7.19109 8.28043 7.39655C8.71377 7.58333 9.30725 7.73276 10.0609 7.84483C10.8145 7.9569 11.7942 8.01293 13 8.01293C14.2246 8.01293 15.2138 7.96624 15.9674 7.87284C16.7399 7.76078 17.3333 7.61135 17.7478 7.42457C18.1623 7.23779 18.4355 7.02299 18.5674 6.78017C18.7181 6.51868 18.7935 6.2385 18.7935 5.93965C18.7935 5.41667 18.6333 4.98707 18.313 4.65086C18.0116 4.31465 17.5877 4.14655 17.0413 4.14655C15.9297 4.14655 15.302 4.0625 14.57 4.99952C14.3628 4.7567 14.1022 4.12787 14.1022 3.64224C14.1022 3.28736 14.1964 2.94181 14.3848 2.6056C14.592 2.2694 14.8746 1.97055 15.2326 1.70905C15.6094 1.42888 16.0616 1.21408 16.5891 1.06465C17.1167 0.896551 17.7101 0.8125 18.3696 0.8125C19.2551 0.8125 20.0558 0.933908 20.7717 1.17672C21.4877 1.40086 22.0906 1.72773 22.5804 2.15733C23.0891 2.56825 23.4754 3.06322 23.7391 3.64224C24.0217 4.22126 24.163 4.86566 24.163 5.57543C24.163 6.32256 24.0217 7.02299 23.7391 7.67672C23.4754 8.33046 23.0138 8.90948 22.3543 9.41379C21.6949 9.9181 20.8188 10.3384 19.7261 10.6746C18.6333 11.0108 17.2768 11.2349 15.6565 11.347V12.972H23.8804C24.6152 12.972 25.1522 13.1307 25.4913 13.4483C25.8304 13.7471 26 14.158 26 14.681C26 15.204 25.821 15.6243 25.463 15.9418C25.1239 16.2407 24.5964 16.3901 23.8804 16.3901H2.11957ZM7.20652 20.5086C7.20652 20.9382 7.2913 21.2838 7.46087 21.5453C7.63043 21.8254 7.9413 22.0402 8.39348 22.1897C8.86449 22.3391 9.49565 22.4418 10.287 22.4978C11.0971 22.5539 12.1333 22.5819 13.3957 22.5819C15.1855 22.5819 16.6268 22.5072 17.7196 22.3578C18.8312 22.227 19.6884 22.0216 20.2913 21.7414C20.913 21.4612 21.3275 21.1157 21.5348 20.7047C21.742 20.3125 21.6353 20.1755 22.0278 19.7864C22.8128 19.3973 23.2399 19.5093 23.7109 19.9203C24.1819 20.3312 24.4174 20.8448 24.4174 21.4612C24.4174 22.1149 24.1913 22.7126 23.7391 23.2543C23.3058 23.8147 22.5804 24.3003 21.563 24.7112C20.5457 25.1221 19.1985 25.4397 17.5217 25.6638C15.8638 25.8879 13.8101 26 11.3609 26C9.74058 26 8.32754 25.9066 7.12174 25.7198C5.93478 25.5517 4.94565 25.2622 4.15435 24.8513C3.38188 24.4591 2.79783 23.9267 2.40217 23.2543C2.02536 22.6006 1.83696 21.7787 1.83696 20.7888V20.0603C1.83696 19.0517 2.07246 18.3139 2.54348 17.847C3.01449 17.3614 3.67391 17.1185 4.52174 17.1185C5.36957 17.1185 6.02899 17.3614 6.5 17.847C6.97101 18.3139 7.20652 19.0517 7.20652 20.0603V20.5086Z" fill="#1D1E23"/>
</svg>
