<svg width="24" height="24" viewBox="0 0 24 24" fill="none" xmlns="http://www.w3.org/2000/svg">
<path d="M2.14359 10.5614C1.7325 11.2575 1.5 12 1.5 12.8977C1.5 14.9609 3.24459 16.9092 5.52281 16.9092H7.23281C7.00219 17.5097 6.81797 18.2278 6.81797 19.0908C6.81797 22.503 8.58469 24 11.2838 24C14.1716 24 14.0069 19.55 14.6475 18.9094C15.7138 17.8431 16.9732 15.7947 17.8706 15H22.5C23.3284 15 24 14.3284 24 13.5V2.25C24 1.42158 23.3284 0.75 22.5 0.75H19.5C18.8019 0.75 18.2153 1.22691 18.0479 1.87266C15.9615 1.82573 14.5295 0.000469208 9.71344 0.000469208C9.375 0.000469208 9 0 8.67188 0C5.05702 0 3.42253 1.84795 3.37781 4.46859C2.75348 5.33226 2.4263 6.48994 2.565 7.60875C2.10309 8.47369 1.9245 9.49983 2.14359 10.5614ZM5.03813 8.03813C4.44938 7.04766 4.97906 5.72203 5.69156 5.33953C5.33063 3.05297 6.51694 2.25047 8.18156 2.25047H9.95437C13.3125 2.25047 15.487 4.02328 18 4.02328V12.75H17.4881C16.1588 12.75 14.3016 16.073 13.0566 17.3184C11.7272 18.6478 12.1702 20.8636 11.2838 21.75C9.06797 21.75 9.06797 20.2041 9.06797 19.0908C9.06797 17.2547 10.3973 16.432 10.3973 14.6592H5.52281C4.53328 14.6592 3.75422 13.7728 3.75 12.8864C3.74578 12.0005 4.35094 11.1141 4.79391 11.1141C4.16161 10.4318 4.02652 8.99363 5.03813 8.03813ZM19.875 3.75C19.875 3.12867 20.3787 2.625 21 2.625C21.6213 2.625 22.125 3.12867 22.125 3.75C22.125 4.37133 21.6213 4.875 21 4.875C20.3787 4.875 19.875 4.37133 19.875 3.75Z" fill="#1D1E23"/>
</svg>
