<svg width="24" height="24" viewBox="0 0 24 24" fill="none" xmlns="http://www.w3.org/2000/svg">
<g clip-path="url(#clip0_493_1181)">
<path d="M19.125 13.5H22.875C23.4963 13.5 24 12.9963 24 12.375V1.125C24 0.503672 23.4963 0 22.875 0H19.125C18.5037 0 18 0.503672 18 1.125V12.375C18 12.9963 18.5037 13.5 19.125 13.5ZM21 1.875C21.6213 1.875 22.125 2.37867 22.125 3C22.125 3.62133 21.6213 4.125 21 4.125C20.3787 4.125 19.875 3.62133 19.875 3C19.875 2.37867 20.3787 1.875 21 1.875ZM6 20.1819C6 18.1937 7.21734 17.0784 7.55986 15.75H2.79159C1.22611 15.75 0.00736046 14.4494 4.76837e-05 13.0267C-0.00389099 12.1858 0.353765 11.2806 0.911251 10.7205L0.916405 10.7154C0.455343 9.62147 0.530296 8.08866 1.35272 6.99028C0.945797 5.77645 1.35595 4.28541 2.12062 3.48605C1.91916 2.66114 2.01544 1.95909 2.40881 1.39392C3.36553 0.0193596 5.73675 0 7.74192 0L7.87528 4.76837e-05C10.1387 0.000844955 11.9912 0.824953 13.4797 1.48716C14.2276 1.81992 15.2056 2.23186 15.9477 2.2455C16.2542 2.25113 16.5 2.5013 16.5 2.80791V12.8284C16.5 12.9784 16.4399 13.1223 16.3332 13.2278C14.4763 15.0627 13.6778 17.0053 12.1559 18.5299C11.4619 19.2251 11.2095 20.2753 10.9656 21.2909C10.7571 22.1581 10.3211 24 9.375 24C8.25 24 6 23.625 6 20.1819Z" fill="#1D1E23"/>
</g>
<defs>
<clipPath id="clip0_493_1181">
<rect width="24" height="24" fill="white" transform="matrix(-1 0 0 -1 24 24)"/>
</clipPath>
</defs>
</svg>
