<svg width="24" height="24" viewBox="0 0 24 24" fill="none" xmlns="http://www.w3.org/2000/svg">
<g clip-path="url(#clip0_493_1178)">
<path d="M4.875 10.5H1.125C0.503672 10.5 0 11.0037 0 11.625V22.875C0 23.4963 0.503672 24 1.125 24H4.875C5.49633 24 6 23.4963 6 22.875V11.625C6 11.0037 5.49633 10.5 4.875 10.5ZM3 22.125C2.37867 22.125 1.875 21.6213 1.875 21C1.875 20.3787 2.37867 19.875 3 19.875C3.62133 19.875 4.125 20.3787 4.125 21C4.125 21.6213 3.62133 22.125 3 22.125ZM18 3.81806C18 5.80631 16.7827 6.92156 16.4401 8.25H21.2084C22.7739 8.25 23.9926 9.55059 24 10.9733C24.0039 11.8142 23.6462 12.7194 23.0887 13.2795L23.0836 13.2846C23.5447 14.3785 23.4697 15.9113 22.6473 17.0097C23.0542 18.2235 22.644 19.7146 21.8794 20.514C22.0808 21.3389 21.9846 22.0409 21.5912 22.6061C20.6345 23.9806 18.2633 24 16.2581 24L16.1247 24C13.8613 23.9992 12.0088 23.175 10.5203 22.5128C9.77236 22.1801 8.79436 21.7681 8.05233 21.7545C7.74577 21.7489 7.5 21.4987 7.5 21.1921V11.1716C7.5 11.0216 7.56009 10.8777 7.66678 10.7722C9.52369 8.93733 10.3222 6.99469 11.8441 5.47013C12.5381 4.77488 12.7905 3.72469 13.0344 2.70909C13.2429 1.84186 13.6789 0 14.625 0C15.75 0 18 0.375 18 3.81806Z" fill="#1D1E23"/>
</g>
<defs>
<clipPath id="clip0_493_1178">
<rect width="24" height="24" fill="white"/>
</clipPath>
</defs>
</svg>
