<svg width="24" height="24" viewBox="0 0 24 24" fill="none" xmlns="http://www.w3.org/2000/svg">
<path d="M21.8564 13.4386C22.2675 12.7425 22.5 12 22.5 11.1023C22.5 9.03914 20.7554 7.09078 18.4772 7.09078H16.7672C16.9978 6.49031 17.182 5.77219 17.182 4.90922C17.182 1.497 15.4153 0 12.7162 0C9.82842 0 9.99314 4.44998 9.3525 5.09062C8.28623 6.15689 7.0268 8.20533 6.12937 9H1.5C0.671578 9 0 9.67158 0 10.5V21.75C0 22.5784 0.671578 23.25 1.5 23.25H4.5C5.19811 23.25 5.78475 22.7731 5.95209 22.1273C8.03845 22.1743 9.47053 23.9995 14.2866 23.9995C14.625 23.9995 15 24 15.3281 24C18.943 24 20.5775 22.152 20.6222 19.5314C21.2465 18.6677 21.5737 17.5101 21.435 16.3912C21.8969 15.5263 22.0755 14.5002 21.8564 13.4386ZM18.9619 15.9619C19.5506 16.9523 19.0209 18.278 18.3084 18.6605C18.6694 20.947 17.4831 21.7495 15.8184 21.7495H14.0456C10.6875 21.7495 8.51302 19.9767 6 19.9767V11.25H6.51187C7.84125 11.25 9.69844 7.92703 10.9434 6.68156C12.2728 5.35219 11.8298 3.13641 12.7162 2.25C14.932 2.25 14.932 3.79594 14.932 4.90922C14.932 6.74531 13.6027 7.56797 13.6027 9.34078H18.4772C19.4667 9.34078 20.2458 10.2272 20.25 11.1136C20.2542 11.9995 19.6491 12.8859 19.2061 12.8859C19.8384 13.5682 19.9735 15.0064 18.9619 15.9619ZM4.125 20.25C4.125 20.8713 3.62133 21.375 3 21.375C2.37867 21.375 1.875 20.8713 1.875 20.25C1.875 19.6287 2.37867 19.125 3 19.125C3.62133 19.125 4.125 19.6287 4.125 20.25Z" fill="#1D1E23"/>
</svg>
