<svg width="24" height="24" viewBox="0 0 24 24" fill="none" xmlns="http://www.w3.org/2000/svg">
<path d="M0 12C0 5.3726 5.3726 0 12 0C18.6274 0 24 5.3726 24 12C24 18.6274 18.6274 24 12 24C5.3726 24 0 18.6274 0 12Z" fill="#FFE812"/>
<path d="M12 5.5C7.5817 5.5 4 8.3241 4 11.8077C4 14.0599 5.4974 16.0361 7.74985 17.1521C7.6273 17.5747 6.9624 19.8709 6.9359 20.0513C6.9359 20.0513 6.92 20.1868 7.00775 20.2385C7.09555 20.2901 7.19875 20.25 7.19875 20.25C7.45045 20.2149 10.1175 18.3415 10.5791 18.0162C11.0403 18.0815 11.5151 18.1154 12 18.1154C16.4183 18.1154 20 15.2914 20 11.8077C20 8.3241 16.4183 5.5 12 5.5Z" fill="#381F1F"/>
<path d="M8.7587 9.9231C9.0084 9.92315 9.21182 10.1261 9.21182 10.3752C9.21169 10.6242 9.00827 10.8273 8.7587 10.8274H8.03799V13.5686C8.03799 13.8117 7.83153 14.0099 7.57706 14.01C7.32251 14.01 7.11514 13.8117 7.11514 13.5686V10.8274H6.39542C6.14575 10.8274 5.94243 10.6243 5.94229 10.3752C5.94229 10.1261 6.14572 9.9231 6.39542 9.9231H8.7587ZM10.3075 9.9231C10.6088 9.93001 10.8448 10.1578 10.9228 10.3792L12.0263 13.2834C12.1667 13.7197 12.0442 13.8812 11.9169 13.9397C11.8249 13.9816 11.7251 14.0032 11.6239 14.0032C11.4316 14.0032 11.2847 13.9256 11.2401 13.8L11.0116 13.2014H9.6044L9.37491 13.8C9.33062 13.9255 9.18353 14.0032 8.99112 14.0032C8.88998 14.0032 8.7901 13.9817 8.69815 13.9397C8.5709 13.881 8.44863 13.7197 8.58878 13.2844L9.69229 10.3792C9.77009 10.1582 10.0069 9.92995 10.3075 9.9231ZM15.3329 9.9231C15.5875 9.9231 15.7948 10.1305 15.7948 10.385V11.3762L17.0829 10.0891C17.1491 10.0229 17.24 9.98657 17.3388 9.98657C17.4539 9.98663 17.5695 10.0358 17.6562 10.1223C17.737 10.2031 17.7853 10.3074 17.7919 10.4153C17.7986 10.5241 17.7626 10.6242 17.6903 10.6965L16.6386 11.7473L17.7743 13.2532C17.8109 13.3014 17.8382 13.3567 17.8534 13.4153C17.8686 13.4739 17.8718 13.5351 17.8632 13.595C17.855 13.655 17.8343 13.7127 17.8036 13.7649C17.7729 13.8171 17.732 13.8624 17.6835 13.8987C17.6037 13.9594 17.5064 13.9926 17.4062 13.9924C17.3347 13.9927 17.2641 13.9764 17.2001 13.9446C17.1361 13.9127 17.0808 13.866 17.038 13.8088L15.955 12.3743L15.7948 12.5344V13.5422C15.7946 13.6645 15.7465 13.782 15.6601 13.8684C15.5735 13.955 15.4553 14.003 15.3329 14.0032C15.0786 14.0029 14.8721 13.7966 14.872 13.5422V10.385C14.872 10.1306 15.0786 9.92333 15.3329 9.9231ZM12.7978 9.9231C13.0575 9.9231 13.2694 10.1305 13.2694 10.385V13.0959H14.2499C14.4937 13.0959 14.692 13.2858 14.6923 13.5188C14.6923 13.752 14.4939 13.9426 14.2499 13.9426H12.7694C12.5255 13.9426 12.3271 13.752 12.3271 13.5188V10.385C12.3271 10.1306 12.5381 9.92325 12.7978 9.9231ZM9.84659 12.384H10.7685L10.3075 11.0745L9.84659 12.384Z" fill="#FFE812"/>
</svg>
